<?xml version="1.0" encoding="UTF-8"?>
<svg xmlns="http://www.w3.org/2000/svg" xmlns:xlink="http://www.w3.org/1999/xlink" width="160px" height="128px" viewBox="0 0 160 128" version="1.1">
<g id="surface1">
<path style=" stroke:none;fill-rule:nonzero;fill:rgb(0%,0%,0%);fill-opacity:1;" d="M 43.75 97.351562 C 41.300781 101.351562 40 105.925781 40 110.625 C 37.5 111.5 34.800781 112 32 112 C 18.75 112 8 101.25 8 88 L 8 16 C 3.574219 16 0 12.425781 0 8 C 0 3.574219 3.574219 0 8 0 L 56 0 C 60.425781 0 64 3.574219 64 8 C 64 12.425781 60.425781 16 56 16 L 56 77.476562 L 43.75 97.375 Z M 24 16 L 24 40 L 40 40 L 40 16 Z M 88 0 L 128 0 C 132.425781 0 136 3.574219 136 8 C 136 12.425781 132.425781 16 128 16 L 128 53.726562 L 157.425781 101.550781 C 159.101562 104.273438 160 107.425781 160 110.648438 C 160 120.226562 152.226562 128 142.648438 128 L 65.351562 128 C 55.773438 128 48 120.226562 48 110.648438 C 48 107.449219 48.898438 104.300781 50.574219 101.550781 L 80 53.726562 L 80 16 C 75.574219 16 72 12.425781 72 8 C 72 3.574219 75.574219 0 80 0 Z M 96 16 L 96 56 C 96 57.476562 95.601562 58.925781 94.824219 60.199219 L 82.625 80 L 125.375 80 L 113.175781 60.199219 C 112.398438 58.949219 112 57.5 112 56 L 112 16 Z M 96 16 "/>
</g>
</svg>
