<?xml version="1.0" encoding="UTF-8"?>
<svg xmlns="http://www.w3.org/2000/svg" xmlns:xlink="http://www.w3.org/1999/xlink" width="160px" height="128px" viewBox="0 0 160 128" version="1.1">
<g id="surface1">
<path style=" stroke:none;fill-rule:nonzero;fill:rgb(0%,0%,0%);fill-opacity:1;" d="M 40 16 C 40 7.175781 47.175781 0 56 0 L 144 0 C 152.824219 0 160 7.175781 160 16 L 160 88 C 160 96.824219 152.824219 104 144 104 L 84.199219 104 C 81.25 97.625 76.726562 92.125 71.101562 88 L 96 88 L 96 80 C 96 75.574219 99.574219 72 104 72 L 120 72 C 124.425781 72 128 75.574219 128 80 L 128 88 L 144 88 L 144 16 L 56 16 L 56 28.273438 C 51.300781 25.550781 45.824219 24 40 24 Z M 40 80 C 26.75 80 16 69.25 16 56 C 16 42.75 26.75 32 40 32 C 53.25 32 64 42.75 64 56 C 64 69.25 53.25 80 40 80 Z M 33.324219 88 L 46.648438 88 C 65.074219 88 80 102.925781 80 121.324219 C 80 125 77.023438 128 73.324219 128 L 6.675781 128 C 2.976562 128 0 125.023438 0 121.324219 C 0 102.925781 14.925781 88 33.324219 88 Z M 33.324219 88 "/>
</g>
</svg>
